<svg width="35" height="35" viewBox="0 0 35 35" fill="none" xmlns="http://www.w3.org/2000/svg">
<rect width="35" height="35" rx="5" fill="#FAFAFA"/>
<path d="M11.9782 9.26451C11.9782 9.26451 12.209 9.23379 12.4396 9.23379L14.2192 9.26451V7.26249C14.2192 6.67719 13.7249 6.21527 13.0987 6.21527C12.4724 6.21527 11.9781 6.67721 11.9781 7.26249L11.9782 9.26451Z" fill="#272640"/>
<path d="M24.3376 11.9135L24.0739 12.0366C23.7774 12.1597 23.4477 12.2523 23.1182 12.2523C22.6568 12.2523 22.1954 12.0983 21.8 11.8518L21.6352 11.7287L21.5034 11.8828C21.0749 12.4064 20.4487 12.6836 19.7566 12.6836C19.3281 12.6836 18.8998 12.5605 18.5372 12.3447L18.3395 12.2216L18.2733 12.3755C18.1416 12.5912 18.0425 12.745 17.8779 12.8684C17.5153 13.1765 17.0868 13.3612 16.6254 13.4227L16.1971 13.4536L16.4937 13.7308C17.779 14.9628 18.1087 16.5646 18.0099 17.5811C17.977 17.8582 17.7462 18.043 17.4496 18.043H17.3836C17.087 18.0123 16.8562 17.7658 16.8893 17.4577C16.8893 17.3346 17.1202 14.7471 14.2857 13.515L14.022 13.3919L13.8572 14.4701C13.8243 14.7473 13.5275 14.932 13.2309 14.9013C12.9343 14.8706 12.7035 14.5932 12.7695 14.316L13.0332 12.7143C13.0661 12.4678 13.3298 12.2523 13.5935 12.283L16.2962 12.3754C16.5928 12.3754 16.8893 12.283 17.0873 12.0983C17.3181 11.9135 17.4169 11.6363 17.4169 11.359C17.4169 10.8046 16.9227 10.3425 16.3293 10.3425L12.3743 10.2808C11.3195 10.2808 10.3967 10.9892 10.265 11.975L9.83645 15.0552C9.67161 16.3489 10.0673 17.6425 10.9901 18.5973L14.0883 21.8623C14.1871 21.9547 14.22 22.078 14.22 22.2011V24.4496C14.22 24.7885 14.5166 25.0656 14.8791 25.0656H21.0753C21.4379 25.0656 21.7345 24.7885 21.7345 24.4496L21.734 22.0783C21.734 21.8935 21.8329 21.7394 21.9977 21.647L22.6899 21.2466C23.9424 20.5072 24.7333 19.2445 24.7333 17.8582V17.4577C24.7333 16.0407 24.6673 14.1003 24.3048 12.2214L24.3376 11.9135Z" fill="#272640"/>
<path d="M19.7894 11.6363C20.4156 11.6363 20.9099 11.1744 20.9099 10.5891V7.26249C20.9099 6.67719 20.4156 6.21527 19.7894 6.21527C19.1631 6.21527 18.6688 6.67721 18.6688 7.26249V10.5891C18.6688 11.1742 19.1631 11.6363 19.7894 11.6363Z" fill="#272640"/>
<path d="M17.2845 9.51096L17.5811 9.63408V6.73862C17.5811 6.15333 17.0868 5.69141 16.4606 5.69141C15.8343 5.69141 15.34 6.15335 15.34 6.73862V9.26451L16.3948 9.29523C16.6914 9.32617 16.9879 9.38763 17.2845 9.51096Z" fill="#272640"/>
<path d="M23.1511 11.2051C23.7774 11.2051 24.2716 10.7431 24.2716 10.1579V7.72462C24.2716 7.13932 23.7774 6.6774 23.1511 6.6774C22.5249 6.6774 22.0306 7.13934 22.0306 7.72462V10.1579C22.0306 10.7122 22.5251 11.2051 23.1511 11.2051Z" fill="#272640"/>
</svg>
